<svg xmlns="http://www.w3.org/2000/svg" xmlns:xlink="http://www.w3.org/1999/xlink" viewBox="0 0 200 200">
	<defs>
		<style>
			.cls-1, .cls-5 { fill: none; }
			.cls-2 { clip-path: url(#clip-path); }
			.cls-3 { fill: #00ab41; }
			.cls-4 { fill: #fff; }
			.cls-5 { stroke: #00ab41; stroke-miterlimit: 10; stroke-width: 4.8px; }
		</style>
		<clipPath id="clip-path">
			<rect class="cls-1" width="200" height="200"/>
		</clipPath>
	</defs>
	<title>hpce21-icon-usage-Asset 28icon</title>
	<g id="Layer_2" data-name="Layer 2">
		<g id="Layer_17" data-name="Layer 17">
			<g class="cls-2">
				<path class="cls-3" d="M100,200A100,100,0,1,0,0,100,100,100,0,0,0,100,200"/>
				<path class="cls-4"
					  d="M50.64,120.9a6.11,6.11,0,0,0,6.23-6c0-22.81,19.35-41.36,43.13-41.36s43.1,18.53,43.13,41.32a6.1,6.1,0,0,0,6.23,6h0a6.12,6.12,0,0,0,6.23-6,51.9,51.9,0,0,0-16.37-37.6,57,57,0,0,0-78.48,0A51.87,51.87,0,0,0,44.4,114.92a6.11,6.11,0,0,0,6.24,6"/>
				<path class="cls-5"
					  d="M50.64,120.9a6.11,6.11,0,0,0,6.23-6c0-22.81,19.35-41.36,43.13-41.36s43.1,18.53,43.13,41.32a6.1,6.1,0,0,0,6.23,6h0a6.12,6.12,0,0,0,6.23-6,51.9,51.9,0,0,0-16.37-37.6,57,57,0,0,0-78.48,0A51.87,51.87,0,0,0,44.4,114.92,6.11,6.11,0,0,0,50.64,120.9Z"/>
				<path class="cls-4"
					  d="M101.5,124.55a4.85,4.85,0,0,1-3.57-.17,4.55,4.55,0,0,1-2.4-2.55,4.45,4.45,0,0,1,2.84-5.73,4.85,4.85,0,0,1,3.57.17,4.55,4.55,0,0,1,2.4,2.55,4.44,4.44,0,0,1-2.84,5.73m-1.57,4.25a9,9,0,0,0,3-.5,8.39,8.39,0,0,0,5.36-10.82,8.57,8.57,0,0,0-4.54-4.81,9.11,9.11,0,0,0-6.75-.32,8.39,8.39,0,0,0-5.36,10.82A8.6,8.6,0,0,0,96.15,128a9.22,9.22,0,0,0,3.78.82"/>
				<path class="cls-4" d="M104,118l.64,1.72a3.6,3.6,0,0,0,4.91,1.91l26-12.34a1.05,1.05,0,0,0-.73-2l-28.31,6.23A3.38,3.38,0,0,0,104,118"/>
			</g>
		</g>
	</g>
</svg>
