<svg xmlns="http://www.w3.org/2000/svg" viewBox="0 0 192.7 195.94">
	<defs>
		<style>
			.cls-1, .cls-2 { fill: #fff; }
			.cls-1 { stroke: #fff; stroke-miterlimit: 10; stroke-width: 2.94px; }
		</style>
	</defs>
	<title>hpce21-icon-Asset 44icon</title>
	<g id="Layer_2" data-name="Layer 2">
		<g id="Layer_27_copy" data-name="Layer 27 copy">
			<path class="cls-1"
				  d="M173.53,187.46c4.54-.68,7.59-2.73,9.38-6.53a9.54,9.54,0,0,0-1.83-11.17c-4.55-4.92-9.23-9.74-14.09-14.34-4.36-4.13-10.14-3.94-14.08.05s-4.19,9.79-.06,14.29c4.53,4.94,9.23,9.74,14.15,14.29,1.75,1.62,4.33,2.3,6.53,3.41M83.76,161.13c41.39-.2,74.79-34.37,74.68-76.41s-34-76.11-75.2-75.9S8.7,43.31,8.87,85.49c.17,41.8,33.88,75.85,74.89,75.64m61.09-19.71,5.27,5.62a4,4,0,0,0,1.25,0c9-4.08,16.55-2,23.13,5.21,4,4.37,8.45,8.28,12.29,12.76,8.54,9.93,4.18,25.18-8.13,28.69-5.85,1.67-11.49.76-16-3.46a205.64,205.64,0,0,1-16.07-16.41c-5.22-6.1-5.21-13.19-1.42-20.89L139,147.35c-37.16,33.39-91.38,25.32-119.1-9.47C-6.64,104.59-4.3,56.09,25.59,25.74a81.58,81.58,0,0,1,109.93-5.66c33,27,43.26,81.42,9.33,121.34"/>
			<path class="cls-1"
				  d="M173.53,187.46c4.54-.68,7.59-2.73,9.38-6.53a9.54,9.54,0,0,0-1.83-11.17c-4.55-4.92-9.23-9.74-14.09-14.34-4.36-4.13-10.14-3.94-14.08.05s-4.19,9.79-.06,14.29c4.53,4.94,9.23,9.74,14.15,14.29C168.75,185.67,171.33,186.35,173.53,187.46ZM83.76,161.13c41.39-.2,74.79-34.37,74.68-76.41s-34-76.11-75.2-75.9S8.7,43.31,8.87,85.49C9,127.29,42.75,161.34,83.76,161.13Zm61.09-19.71,5.27,5.62a4,4,0,0,0,1.25,0c9-4.08,16.55-2,23.13,5.21,4,4.37,8.45,8.28,12.29,12.76,8.54,9.93,4.18,25.18-8.13,28.69-5.85,1.67-11.49.76-16-3.46a205.64,205.64,0,0,1-16.07-16.41c-5.22-6.1-5.21-13.19-1.42-20.89L139,147.35c-37.16,33.39-91.38,25.32-119.1-9.47C-6.64,104.59-4.3,56.09,25.59,25.74a81.58,81.58,0,0,1,109.93-5.66C168.49,47.12,178.78,101.5,144.85,141.42Z"/>
			<path class="cls-2"
				  d="M76,42.06c1.32-9,2.81-11.31,7-11.32s5.59,2.16,7.18,11.46a80.67,80.67,0,0,1,7.36,3.54c6.26,3.79,10.66,9,11.13,16.79.27,4.58-1.37,7-4.8,7.7s-5.91-1-7.36-5.15C93.31,55.8,84.37,52,75.78,56.39,72.69,58,70.08,60.13,70,64s2.28,6.42,5.49,7.76,6.87,2,10.3,3.07c3.92,1.18,8.08,1.92,11.7,3.75,8.15,4.11,13.27,10.71,13.28,20.37s-5.18,16.1-13.22,20.45c-2.25,1.21-4.69,2-7.38,3.19-.31,1.9-.57,3.93-1,5.93-.68,3.49-2.66,5.71-6.31,5.59s-5.45-2.57-6.08-6c-.33-1.75-.39-3.57-.58-5.46-2.55-1.06-5-1.89-7.23-3-7-3.61-11.87-9-13.47-17.08-1-5,.61-8.43,4.32-9.6s6.72.86,7.93,6.19c1.42,6.29,5.49,9.27,11.15,10.35,6.33,1.2,12.37.39,17-4.83,3.11-3.5,3.29-8,0-11.25a21.84,21.84,0,0,0-7.76-4.72c-3.84-1.4-8-1.79-11.92-3.07a36.89,36.89,0,0,1-9.75-4.41C54,72.52,54.18,55.68,66.64,47c2.71-1.89,5.87-3.13,9.37-4.95"/>
		</g>
	</g>
</svg>
