<svg xmlns="http://www.w3.org/2000/svg" xmlns:xlink="http://www.w3.org/1999/xlink" viewBox="0 0 200 200">
	<defs>
		<style>
			.cls-1, .cls-5 { fill: none; }
			.cls-2 { clip-path: url(#clip-path); }
			.cls-3 { fill: #00779f; }
			.cls-4 { fill: #fff; }
			.cls-5 { stroke: #00779f; stroke-miterlimit: 10; stroke-width: 4.8px; }
		</style>
		<clipPath id="clip-path">
			<rect class="cls-1" width="200" height="200"/>
		</clipPath>
	</defs>
	<title>hpce21-icon-usage-Asset 27icon</title>
	<g id="Layer_2" data-name="Layer 2">
		<g id="Layer_21" data-name="Layer 21">
			<g class="cls-2">
				<path class="cls-3" d="M100,200A100,100,0,1,0,0,100,100,100,0,0,0,100,200"/>
				<path class="cls-4"
					  d="M149.36,120.9a6.11,6.11,0,0,1-6.23-6c0-22.81-19.35-41.36-43.13-41.36S56.9,92.09,56.87,114.88a6.1,6.1,0,0,1-6.23,6h0a6.12,6.12,0,0,1-6.23-6,51.9,51.9,0,0,1,16.37-37.6,57,57,0,0,1,78.48,0,51.87,51.87,0,0,1,16.35,37.64,6.11,6.11,0,0,1-6.24,6"/>
				<path class="cls-5"
					  d="M149.36,120.9a6.11,6.11,0,0,1-6.23-6c0-22.81-19.35-41.36-43.13-41.36S56.9,92.09,56.87,114.88a6.1,6.1,0,0,1-6.23,6h0a6.12,6.12,0,0,1-6.23-6,51.9,51.9,0,0,1,16.37-37.6,57,57,0,0,1,78.48,0,51.87,51.87,0,0,1,16.35,37.64A6.11,6.11,0,0,1,149.36,120.9Z"/>
				<path class="cls-4"
					  d="M98.5,124.55a4.85,4.85,0,0,0,3.57-.17,4.55,4.55,0,0,0,2.4-2.55,4.45,4.45,0,0,0-2.84-5.73,4.85,4.85,0,0,0-3.57.17,4.55,4.55,0,0,0-2.4,2.55,4.44,4.44,0,0,0,2.84,5.73m1.57,4.25a9,9,0,0,1-3-.5,8.39,8.39,0,0,1-5.36-10.82,8.57,8.57,0,0,1,4.54-4.81,9.11,9.11,0,0,1,6.75-.32,8.39,8.39,0,0,1,5.36,10.82,8.6,8.6,0,0,1-4.54,4.81,9.22,9.22,0,0,1-3.78.82"/>
				<path class="cls-4" d="M96,118l-.64,1.72a3.6,3.6,0,0,1-4.91,1.91l-26-12.34a1.05,1.05,0,0,1,.73-2l28.31,6.23A3.38,3.38,0,0,1,96,118"/>
			</g>
		</g>
	</g>
</svg>
