<svg xmlns="http://www.w3.org/2000/svg" xmlns:xlink="http://www.w3.org/1999/xlink" viewBox="0 0 200 200">
	<defs>
		<style>
			.cls-1 { fill: none; }
			.cls-2 { clip-path: url(#clip-path); }
			.cls-3 { fill: #00ab41; }
			.cls-4 { fill: #fff; }
		</style>
		<clipPath id="clip-path" transform="translate(0)">
			<rect class="cls-1" width="200" height="200"/>
		</clipPath>
	</defs>
	<title>hpce21-icon-coverage-Asset 22icon</title>
	<g id="Layer_2" data-name="Layer 2">
		<g id="Layer_16" data-name="Layer 16">
			<g class="cls-2">
				<path class="cls-3" d="M100,200A100,100,0,1,0,0,100,100,100,0,0,0,100,200" transform="translate(0)"/>
				<path class="cls-4"
					  d="M115.39,125.41a4,4,0,0,1-3.27,4.1V108a2.29,2.29,0,0,0-4.57,0v43a3,3,0,0,1-3,3,3,3,0,0,1-2.5-1.39V134.47a2.29,2.29,0,0,0-4.57,0v18.11a3,3,0,0,1-2.5,1.39,3,3,0,0,1-3-3V108a2.29,2.29,0,0,0-4.57,0v21.54a3.94,3.94,0,0,1-3.27-4.1V102.65a3,3,0,0,1,3-3h25.25a3,3,0,0,1,3,3Zm-3-30.37H87.1a7.62,7.62,0,0,0-7.6,7.61v22.76c0,3.67,2.11,7.89,7.84,8.77v16.76a7.61,7.61,0,0,0,12.39,5.91,7.51,7.51,0,0,0,4.78,1.69,7.62,7.62,0,0,0,7.61-7.6V134.18c5.73-.88,7.84-5.1,7.84-8.77V102.65A7.63,7.63,0,0,0,112.35,95"
					  transform="translate(0)"/>
				<path class="cls-4" d="M99.73,75a6.45,6.45,0,1,1-6.45,6.45A6.46,6.46,0,0,1,99.73,75m0,17.47a11,11,0,1,0-11-11,11,11,0,0,0,11,11"
					  transform="translate(0)"/>
				<path class="cls-4"
					  d="M79.89,154A4.53,4.53,0,0,1,76,151.69V112.82a2.29,2.29,0,0,0-4.57,0v38.87A4.54,4.54,0,0,1,67.5,154a4.62,4.62,0,0,1-4.61-4.61V84.72a2.29,2.29,0,0,0-4.57,0V113.5c-4.81-.79-5.59-4.1-5.59-6.18V77.83a4.62,4.62,0,0,1,4.61-4.61H84.82A2.29,2.29,0,1,0,85,68.64H57.34a9.19,9.19,0,0,0-9.18,9.18v29.49c0,4.59,2.72,9.87,10.16,10.77v31.27a9.19,9.19,0,0,0,9.18,9.18,9.07,9.07,0,0,0,6.19-2.41,9.1,9.1,0,0,0,6.2,2.41,2.29,2.29,0,0,0,0-4.57"
					  transform="translate(0)"/>
				<path class="cls-4"
					  d="M73.69,46A6.69,6.69,0,1,1,67,52.71,6.69,6.69,0,0,1,73.69,46m0,17.94A11.26,11.26,0,1,0,62.44,52.71,11.27,11.27,0,0,0,73.69,64"
					  transform="translate(0)"/>
				<path class="cls-4"
					  d="M120.11,154a4.53,4.53,0,0,0,3.91-2.28V112.82a2.29,2.29,0,0,1,4.57,0v38.87A4.54,4.54,0,0,0,132.5,154a4.62,4.62,0,0,0,4.61-4.61V84.72a2.29,2.29,0,0,1,4.57,0V113.5c4.81-.79,5.59-4.1,5.59-6.18V77.83a4.62,4.62,0,0,0-4.61-4.61H115.18a2.29,2.29,0,1,1-.14-4.57h27.62a9.19,9.19,0,0,1,9.18,9.18v29.49c0,4.59-2.72,9.87-10.16,10.77v31.27a9.19,9.19,0,0,1-9.18,9.18,9.07,9.07,0,0,1-6.19-2.41,9.1,9.1,0,0,1-6.2,2.41,2.29,2.29,0,0,1,0-4.57"
					  transform="translate(0)"/>
				<path class="cls-4"
					  d="M126.31,46A6.69,6.69,0,1,0,133,52.71,6.69,6.69,0,0,0,126.31,46m0,17.94a11.26,11.26,0,1,1,11.25-11.26A11.27,11.27,0,0,1,126.31,64"
					  transform="translate(0)"/>
			</g>
		</g>
	</g>
</svg>
