<svg xmlns="http://www.w3.org/2000/svg" xmlns:xlink="http://www.w3.org/1999/xlink" viewBox="0 0 153.68 200">
	<defs>
		<style>
			.cls-1 { fill: none; }
			.cls-2 { clip-path: url(#clip-path); }
			.cls-3 { fill: #fff; }
		</style>
		<clipPath id="clip-path" transform="translate(0)">
			<rect class="cls-1" width="153.68" height="200"/>
		</clipPath>
	</defs>
	<title>hpce21-icon-Asset 15icon</title>
	<g id="Layer_2" data-name="Layer 2">
		<g id="Layer_4" data-name="Layer 4">
			<g class="cls-2">
				<path class="cls-3"
					  d="M45.82,146.73c-.74,6.91,1,12.85,7,17.5a36.35,36.35,0,0,0,12.38,5.91c2.47.71,5,1.3,7.63,2v10.16h9.79c0-2.87.1-5.59,0-8.31-.08-1.64.46-2.36,2.4-2.56a34.41,34.41,0,0,0,6-1.3c12.92-3.86,17.72-11.88,17-23.2-.5-7.41-4.61-12.91-12-16.47-2.4-1.15-4.89-2.16-7.35-3.23-5.77-2.51-11.73-4.74-17.26-7.61-6.44-3.35-6.2-13.53.08-16.74,7.2-3.69,16.12-.27,17.88,6.88.33,1.34.6,2.69.9,4h17.23a7.13,7.13,0,0,0,.19-1.16c-.09-8.11-3.37-14.84-11.45-19.1a51.37,51.37,0,0,0-10.26-3.55c-1.66-.45-2.32-.94-2.24-2.51.14-3.13,0-6.27,0-9.4H73.85c0,3.2,0,6.28,0,9.36,0,1.07-.32,1.63-1.57,1.93-2.45.57-4.87,1.24-7.25,2-9.64,3-15.27,9.14-16.41,18-1.17,9.07,2.81,16.25,11.83,20.92,3.6,1.86,7.47,3.3,11.21,4.93,4.48,1.95,9.08,3.71,13.4,5.9,4.15,2.1,5.7,6.39,4.56,11a9.15,9.15,0,0,1-8.44,7.15,32.4,32.4,0,0,1-7.56,0c-4.91-.64-8.18-3.22-9.6-7.46-.42-1.26-.47-2.62-.86-3.91-.13-.43-.76-1.07-1.17-1.07-5.33-.08-10.66-.05-16.19-.05M76.76,200H19.19C7.6,200-.23,193.34,0,183.08c.26-11.49.69-23,1.69-34.46C2.77,136.38,4.38,124.17,6.15,112a80.41,80.41,0,0,1,7.91-24.52C18.79,78,26.54,70.88,36,65.12c5.52-3.36,11.4-6.25,17.15-9.29a5.77,5.77,0,0,1,2.54-.51c5.21,0,10.41,0,15.62,0,4.87,0,8.33-2.87,8.32-6.84s-3.49-6.74-8.23-6.77-9.73,0-14.59.05a3.28,3.28,0,0,1-3.14-1.51c-4.44-6.33-9-12.6-13.41-18.92a21.15,21.15,0,0,1-2.08-3.74c-1-2.28-.13-3.88,2.59-4.35a41.78,41.78,0,0,1,6.54-.37c2,0,4.57-.48,5.93.41s1.35,3.15,1.91,4.83c.94,2.84,1.85,5.7,2.79,8.54a7.24,7.24,0,0,0,8.86,4.88c4.07-1,6-4.38,4.73-8.36-1.6-5-3.12-10-4.92-15a4.6,4.6,0,0,1,1.12-5C71.27-1,77-1.09,80.55,3.05a34.41,34.41,0,0,1,3.21,4.84c2.13,3.53,5,4.5,9.23,3,2-.7,3.89-1.5,5.88-2.16A26.21,26.21,0,0,1,103,7.66c3.77-.6,5.54,1.26,4.2,4.44-3.27,7.7-6.59,15.39-9.89,23.08-2.14,5-4.21,10-6.45,14.91-.64,1.39-.34,2.15,1.11,2.69,1.89.7,3.84,1.3,5.67,2.1,10.08,4.47,19.66,9.58,28.07,16.3C134.94,78.55,140,88,143.52,98.3c3,8.79,4.37,17.83,5.61,26.91a508.53,508.53,0,0,1,4.55,56.3,21.57,21.57,0,0,1-.8,6.28c-2,7.05-8.87,11.8-17.12,11.82-19.66,0-39.33,0-59,0V200"
					  transform="translate(0)"/>
			</g>
		</g>
	</g>
</svg>
