<svg xmlns="http://www.w3.org/2000/svg" xmlns:xlink="http://www.w3.org/1999/xlink" viewBox="0 0 200 200">
	<defs>
		<style>
			.cls-1 { fill: none; }
			.cls-2 { clip-path: url(#clip-path); }
			.cls-3 { fill: #00779f; }
			.cls-4 { fill: #fff; }
		</style>
		<clipPath id="clip-path">
			<rect class="cls-1" width="200" height="200"/>
		</clipPath>
	</defs>
	<title>hpce21-icon-coverage-Asset 24icon</title>
	<g id="Layer_2" data-name="Layer 2">
		<g id="Layer_18" data-name="Layer 18">
			<g class="cls-2">
				<path class="cls-3" d="M100,200A100,100,0,1,0,0,100,100,100,0,0,0,100,200"/>
				<path class="cls-4"
					  d="M86.49,46.17a6.68,6.68,0,1,1-6.4,6.67,6.55,6.55,0,0,1,6.4-6.67m0,17.9A11.23,11.23,0,1,0,75.72,52.84,11,11,0,0,0,86.49,64.07"/>
				<path class="cls-4"
					  d="M114.43,46.17a6.68,6.68,0,1,1-6.4,6.67,6.55,6.55,0,0,1,6.4-6.67m0,17.9a11.23,11.23,0,1,0-10.77-11.23,11,11,0,0,0,10.77,11.23"/>
				<path class="cls-4"
					  d="M137.47,107.3c0,2.07-.75,5.38-5.35,6.16V84.77a2.19,2.19,0,1,0-4.37,0v64.46a4.52,4.52,0,0,1-4.41,4.6,4.3,4.3,0,0,1-3.74-2.29V112.79a2.19,2.19,0,1,0-4.37,0v38.75a4.31,4.31,0,0,1-3.75,2.29,4.52,4.52,0,0,1-4.41-4.6V84.77a2.23,2.23,0,0,0-2.18-2.28H91.48L70.84,75.17a4.15,4.15,0,0,1-2.28-5.41,3.59,3.59,0,0,1,2.06-2.09,4.35,4.35,0,0,1,3.25,0l17,5.56a2.11,2.11,0,0,0,.66.1h13.24a1,1,0,0,0,.25,0h28.05a4.51,4.51,0,0,1,4.41,4.6ZM92.93,149.23a4.52,4.52,0,0,1-4.41,4.6,4.28,4.28,0,0,1-3.74-2.29V112.79a2.19,2.19,0,1,0-4.38,0v38.75a4.3,4.3,0,0,1-3.74,2.29,4.52,4.52,0,0,1-4.41-4.6V84.77a2.19,2.19,0,1,0-4.37,0v28.69c-4.6-.79-5.35-4.09-5.35-6.16V77.89a4.62,4.62,0,0,1,1.88-3.75,8.53,8.53,0,0,0,5,5.31l21,7.47a2.11,2.11,0,0,0,.7.13h1.82Zm40.13-80.5H91.85L75.28,63.3a8.53,8.53,0,0,0-6.32.15,8,8,0,0,0-4.5,4.74,9.37,9.37,0,0,0-.26,1,9.07,9.07,0,0,0-6,8.69V107.3c0,4.58,2.61,9.84,9.72,10.74v31.19a9,9,0,0,0,8.78,9.15A8.51,8.51,0,0,0,82.59,156a8.47,8.47,0,0,0,5.93,2.41,9,9,0,0,0,8.78-9.15V87.05h5.4v62.18a9,9,0,0,0,8.78,9.15,8.47,8.47,0,0,0,5.93-2.41,8.51,8.51,0,0,0,5.93,2.41,9,9,0,0,0,8.78-9.15V118.06c7.12-.89,9.72-6.18,9.72-10.76V77.89a9,9,0,0,0-8.78-9.16"/>
			</g>
		</g>
	</g>
</svg>
