<svg xmlns="http://www.w3.org/2000/svg" xmlns:xlink="http://www.w3.org/1999/xlink" viewBox="0 0 200 200">
	<defs>
		<style>
			.cls-1 { fill: none; }
			.cls-2 { fill: #3fa9f5; }
			.cls-3 { clip-path: url(#clip-path); }
			.cls-4, .cls-5, .cls-6 { fill: #fff; }
			.cls-5, .cls-6 { stroke: #3fa9f5; stroke-miterlimit: 10; }
			.cls-5 { stroke-width: 2px; }
		</style>
		<clipPath id="clip-path">
			<rect class="cls-1" x="9.52" y="5.5" width="188.96" height="175"/>
		</clipPath>
	</defs>
	<title>hpce21-icon-start-Asset 38icon</title>
	<g id="Layer_2" data-name="Layer 2">
		<g id="Layer_26" data-name="Layer 26">
			<path class="cls-2" d="M100,200A100,100,0,1,0,0,100,100,100,0,0,0,100,200"/>
			<g class="cls-3">
				<path class="cls-4"
					  d="M173.86,97.51,156.83,80a3.54,3.54,0,1,0-5.08,4.94l11.18,11.51h-23.5a3.54,3.54,0,0,0,0,7.08h23.5L151.75,115a3.54,3.54,0,0,0,5.08,4.94l17-17.52a3.54,3.54,0,0,0,0-4.94"/>
				<path class="cls-5"
					  d="M173.86,97.51,156.83,80a3.54,3.54,0,1,0-5.08,4.94l11.18,11.51h-23.5a3.54,3.54,0,0,0,0,7.08h23.5L151.75,115a3.54,3.54,0,0,0,5.08,4.94l17-17.52A3.54,3.54,0,0,0,173.86,97.51Z"/>
				<path class="cls-6"
					  d="M98.69,66.48A16.77,16.77,0,1,1,81.93,83.24,16.78,16.78,0,0,1,98.69,66.48Zm31.45,68.09a3.55,3.55,0,0,0,3.55-3.55v-3.58a27.48,27.48,0,0,0-19.37-26.22,23.86,23.86,0,1,0-31.25,0A27.48,27.48,0,0,0,63.7,127.44V131a3.55,3.55,0,1,0,7.09,0v-3.58a20.37,20.37,0,0,1,20.34-20.35h15.13a20.37,20.37,0,0,1,20.34,20.35V131A3.54,3.54,0,0,0,130.14,134.57Z"/>
				<path class="cls-4"
					  d="M153,130a3.54,3.54,0,0,0-4.89,1.11,58.47,58.47,0,1,1,0-62.2,3.54,3.54,0,1,0,6-3.78,65.56,65.56,0,1,0,0,69.75A3.53,3.53,0,0,0,153,130"/>
				<path class="cls-4"
					  d="M153,130a3.54,3.54,0,0,0-4.89,1.11,58.47,58.47,0,1,1,0-62.2,3.54,3.54,0,1,0,6-3.78,65.56,65.56,0,1,0,0,69.75A3.53,3.53,0,0,0,153,130Z"/>
			</g>
		</g>
	</g>
</svg>
