<svg xmlns="http://www.w3.org/2000/svg" viewBox="0 0 200 200">
	<defs>
		<style>
			.cls-1 { fill: #00ac4b; }
			.cls-2, .cls-3 { fill: #fff; stroke-miterlimit: 10; }
			.cls-2 { stroke: #fff; stroke-width: 1.92px; }
			.cls-3 { stroke: #00ac4b; stroke-width: 2.33px; }
		</style>
	</defs>
	<title>hpce21-icon-start-Asset 39icon</title>
	<g id="Layer_2" data-name="Layer 2">
		<g id="Layer_27" data-name="Layer 27">
			<path class="cls-1" d="M100,200A100,100,0,1,0,0,100,100,100,0,0,0,100,200"/>
			<path class="cls-2"
				  d="M153.44,159.42a7.36,7.36,0,0,0,6.13-4.27,6.24,6.24,0,0,0-1.19-7.3c-3-3.21-6-6.36-9.21-9.37a6.3,6.3,0,0,0-9.2,0,6.45,6.45,0,0,0,0,9.33c3,3.23,6,6.37,9.24,9.34,1.15,1.06,2.83,1.5,4.27,2.23M94.77,142.21c27.06-.13,48.88-22.46,48.81-49.93s-22.19-49.74-49.14-49.6-48.72,22.53-48.6,50.1C46,120.09,68,142.35,94.77,142.21m39.93-12.88,3.44,3.67c.42,0,.65.07.82,0,5.87-2.66,10.82-1.33,15.12,3.4,2.59,2.86,5.52,5.42,8,8.34,5.58,6.49,2.73,16.46-5.32,18.75a10.39,10.39,0,0,1-10.46-2.26,134.46,134.46,0,0,1-10.5-10.72c-3.41-4-3.41-8.62-.93-13.65l-4-3.65A53.65,53.65,0,0,1,53,127a55.56,55.56,0,0,1,3.73-73.29A53.31,53.31,0,0,1,128.6,50c21.55,17.67,28.27,53.21,6.1,79.3"/>
			<path class="cls-2"
				  d="M153.44,159.42a7.36,7.36,0,0,0,6.13-4.27,6.24,6.24,0,0,0-1.19-7.3c-3-3.21-6-6.36-9.21-9.37a6.3,6.3,0,0,0-9.2,0,6.45,6.45,0,0,0,0,9.33c3,3.23,6,6.37,9.24,9.34C150.32,158.25,152,158.69,153.44,159.42ZM94.77,142.21c27.06-.13,48.88-22.46,48.81-49.93s-22.19-49.74-49.14-49.6-48.72,22.53-48.6,50.1C46,120.09,68,142.35,94.77,142.21Zm39.93-12.88,3.44,3.67c.42,0,.65.07.82,0,5.87-2.66,10.82-1.33,15.12,3.4,2.59,2.86,5.52,5.42,8,8.34,5.58,6.49,2.73,16.46-5.32,18.75a10.39,10.39,0,0,1-10.46-2.26,134.46,134.46,0,0,1-10.5-10.72c-3.41-4-3.41-8.62-.93-13.65l-4-3.65A53.65,53.65,0,0,1,53,127a55.56,55.56,0,0,1,3.73-73.29A53.31,53.31,0,0,1,128.6,50C150.15,67.7,156.87,103.24,134.7,129.33Z"/>
			<path class="cls-3"
				  d="M89.71,64.4c.87-5.85,1.84-7.39,4.6-7.4S98,58.41,99,64.49a52.6,52.6,0,0,1,4.81,2.32c4.09,2.47,7,5.88,7.27,11,.18,3-.89,4.61-3.14,5s-3.86-.66-4.8-3.37c-2.12-6.06-8-8.53-13.58-5.68-2,1-3.72,2.45-3.79,5a5.22,5.22,0,0,0,3.59,5.08c2.15.89,4.49,1.33,6.73,2,2.56.77,5.28,1.25,7.64,2.44,5.33,2.69,8.68,7,8.68,13.32S109,112.12,103.77,115c-1.46.79-3.06,1.34-4.82,2.09-.2,1.24-.37,2.56-.63,3.87-.45,2.28-1.74,3.73-4.13,3.65s-3.55-1.67-4-3.9c-.21-1.14-.25-2.33-.38-3.57-1.66-.69-3.25-1.23-4.72-2-4.57-2.36-7.76-5.92-8.8-11.16-.65-3.26.4-5.51,2.82-6.27s4.39.56,5.18,4c.93,4.11,3.59,6.06,7.29,6.76,4.14.79,8.08.26,11.1-3.15,2-2.29,2.15-5.22,0-7.36a14.4,14.4,0,0,0-5.07-3.08c-2.51-.91-5.25-1.17-7.79-2A24,24,0,0,1,83.46,90c-8.1-5.7-8-16.71.13-22.38a57.32,57.32,0,0,1,6.12-3.23"/>
		</g>
	</g>
</svg>
