<svg xmlns="http://www.w3.org/2000/svg" xmlns:xlink="http://www.w3.org/1999/xlink" viewBox="0 0 200 200">
	<defs>
		<style>
			.cls-1 { fill: none; }
			.cls-2 { clip-path: url(#clip-path); }
			.cls-3 { fill: #00ab41; }
			.cls-4 { fill: #fff; }
		</style>
		<clipPath id="clip-path" transform="translate(0)">
			<rect class="cls-1" width="200" height="200"/>
		</clipPath>
	</defs>
	<title>hpce21-icon-pref-Asset 32icon</title>
	<g id="Layer_2" data-name="Layer 2">
		<g id="Layer_22" data-name="Layer 22">
			<g class="cls-2">
				<path class="cls-3" d="M100,200A100,100,0,1,0,0,100,100,100,0,0,0,100,200" transform="translate(0)"/>
				<path class="cls-4"
					  d="M94.46,95.55h7.89a2.05,2.05,0,0,0,0-4.1H98.4V87.36a2,2,0,1,0-3.94,0v4.09a6.15,6.15,0,0,0,0,12.3H98.4a2,2,0,0,1,0,4.09H90.51a2.05,2.05,0,0,0,0,4.1h3.95V116a2,2,0,1,0,3.94,0v-4.1a6.15,6.15,0,0,0,0-12.29H94.46a2.05,2.05,0,0,1,0-4.1m57.24,6.15a4,4,0,0,1-3.95,4.1h-5.92a2,2,0,0,0,0,4.09h.81A27.93,27.93,0,0,1,121.7,129.8a2,2,0,0,0-1.58,2v8.82a2,2,0,0,1-2,2H114.2a2,2,0,0,1-2-2v-8.2a2,2,0,0,0-2-2.05H84.59a27,27,0,0,1-5.53-.57,1.83,1.83,0,0,0-.4-.05,1.91,1.91,0,0,0-1.24.47,2.08,2.08,0,0,0-.73,1.58v8.82a2,2,0,0,1-2,2h-4a2,2,0,0,1-2-2V126.24A2.11,2.11,0,0,0,68,124.6,28.85,28.85,0,0,1,57,102a28.94,28.94,0,0,1,28.5-29h26.46a4,4,0,0,0,3.64-2.51A15.89,15.89,0,0,1,128,60.85V74.59a2.08,2.08,0,0,0,1.05,1.81,28.1,28.1,0,0,1,11.53,11.92,2,2,0,0,0,1.75,1.08h9.36Zm0-16.39h-8.2A32.15,32.15,0,0,0,132,73.38V58.67a2,2,0,0,0-2-2.05,19.76,19.76,0,0,0-18.08,12.3H85.45A33,33,0,0,0,53.11,99.31a6.12,6.12,0,0,1-4-5.81,2,2,0,1,0-4,0,10.17,10.17,0,0,0,8,10,32.88,32.88,0,0,0,11.75,23.69v13.39a6,6,0,0,0,5.92,6.14h4a6,6,0,0,0,5.92-6.14v-6.41a30.71,30.71,0,0,0,4,.26h23.68v6.15a6,6,0,0,0,5.93,6.14h3.94a6,6,0,0,0,5.92-6.14v-7.19a32.06,32.06,0,0,0,22.67-23.55h1a8.05,8.05,0,0,0,7.9-8.19V89.4a4,4,0,0,0-4-4.09M86.76,64.82a2.58,2.58,0,0,0,.39,0,2,2,0,0,0,1.54-2.42,9,9,0,0,1-.15-1.64,8.29,8.29,0,0,1,2.84-6.3A7.65,7.65,0,0,1,98,52.67a8,8,0,0,1,6.18,6.22,8.63,8.63,0,0,1,0,3.47,2,2,0,0,0,1.54,2.42,2,2,0,0,0,2.33-1.6A12.91,12.91,0,0,0,108,58a12.08,12.08,0,0,0-9.32-9.36,11.53,11.53,0,0,0-9.8,2.63,12.43,12.43,0,0,0-4.27,9.45,13.38,13.38,0,0,0,.23,2.45,2,2,0,0,0,1.94,1.65m38.29,16.39a7.05,7.05,0,0,0-6.91,7.17,2,2,0,1,0,4,0,3,3,0,1,1,5.92,0,2,2,0,1,0,4,0,7.05,7.05,0,0,0-6.91-7.17"
					  transform="translate(0)"/>
			</g>
		</g>
	</g>
</svg>
