<svg xmlns="http://www.w3.org/2000/svg" xmlns:xlink="http://www.w3.org/1999/xlink" viewBox="0 0 200 200">
	<defs>
		<style>
			.cls-1 { fill: none; }
			.cls-2 { clip-path: url(#clip-path); }
			.cls-3 { fill: #00958e; }
			.cls-4 { fill: #fff; }
		</style>
		<clipPath id="clip-path">
			<rect class="cls-1" width="200" height="200"/>
		</clipPath>
	</defs>
	<title>hpce21-icon-coverage-Asset 25icon</title>
	<g id="Layer_2" data-name="Layer 2">
		<g id="Layer_19" data-name="Layer 19">
			<g class="cls-2">
				<path class="cls-3" d="M100,200A100,100,0,1,0,0,100,100,100,0,0,0,100,200"/>
				<path class="cls-4"
					  d="M131.33,125.57a4,4,0,0,1-3.27,4.1V108.13a2.29,2.29,0,0,0-4.57,0v43a3,3,0,0,1-3,3,3,3,0,0,1-2.5-1.39V134.63a2.29,2.29,0,0,0-4.57,0v18.11a3,3,0,0,1-2.49,1.39,3,3,0,0,1-3-3v-43a2.29,2.29,0,0,0-4.57,0v21.54a3.94,3.94,0,0,1-3.27-4.1V102.81a3,3,0,0,1,3-3h25.24a3,3,0,0,1,3,3Zm-3-30.37H103.05a7.62,7.62,0,0,0-7.61,7.61v22.76c0,3.67,2.11,7.89,7.84,8.77V151.1a7.61,7.61,0,0,0,7.61,7.6,7.53,7.53,0,0,0,4.78-1.69,7.51,7.51,0,0,0,4.78,1.69,7.61,7.61,0,0,0,7.61-7.6V134.34c5.73-.88,7.84-5.1,7.84-8.77V102.81a7.62,7.62,0,0,0-7.61-7.61"/>
				<path class="cls-4"
					  d="M115.67,75.17a6.45,6.45,0,1,1-6.45,6.45,6.45,6.45,0,0,1,6.45-6.45m0,17.47a11,11,0,1,0-11-11,11,11,0,0,0,11,11"/>
				<path class="cls-4"
					  d="M95.83,154.13a4.54,4.54,0,0,1-3.91-2.28V113a2.29,2.29,0,0,0-4.57,0v38.87a4.54,4.54,0,0,1-3.91,2.28,4.62,4.62,0,0,1-4.61-4.61V84.88a2.29,2.29,0,0,0-4.57,0v28.78c-4.8-.79-5.59-4.1-5.59-6.18V78a4.62,4.62,0,0,1,4.61-4.61h27.48a2.29,2.29,0,1,0,.14-4.57H73.28A9.19,9.19,0,0,0,64.1,78v29.49c0,4.59,2.72,9.87,10.16,10.77v31.27a9.18,9.18,0,0,0,15.38,6.77,9.07,9.07,0,0,0,6.19,2.41,2.29,2.29,0,1,0,0-4.57"/>
				<path class="cls-4"
					  d="M89.64,46.19A6.69,6.69,0,1,1,83,52.87a6.69,6.69,0,0,1,6.69-6.68m0,17.94A11.26,11.26,0,1,0,78.38,52.87,11.27,11.27,0,0,0,89.64,64.13"/>
			</g>
		</g>
	</g>
</svg>
