<svg xmlns="http://www.w3.org/2000/svg" xmlns:xlink="http://www.w3.org/1999/xlink" viewBox="0 0 200 200">
	<defs>
		<style>
			.cls-1, .cls-5 { fill: none; }
			.cls-2 { clip-path: url(#clip-path); }
			.cls-3 { fill: #00958e; }
			.cls-4 { fill: #fff; }
			.cls-5 { stroke: #fff; stroke-miterlimit: 10; stroke-width: 1.6px; }
		</style>
		<clipPath id="clip-path">
			<rect class="cls-1" width="200" height="200"/>
		</clipPath>
	</defs>
	<title>hpce21-icon-pref-Asset 31icon</title>
	<g id="Layer_2" data-name="Layer 2">
		<g id="Layer_23" data-name="Layer 23">
			<g class="cls-2">
				<path class="cls-3" d="M100,200A100,100,0,1,0,0,100,100,100,0,0,0,100,200"/>
				<path class="cls-4"
					  d="M60.27,68.48H51.4a1.94,1.94,0,0,0-.34,0,1.06,1.06,0,0,0-.9,1.12q0,7.5,0,15c0,.21-.06.26-.28.26-1.73,0-3.46,0-5.19,0a2.08,2.08,0,0,0-.43,0,1.43,1.43,0,0,0-1.17,1,1.31,1.31,0,0,0,.36,1.43l5.14,5,10.52,10.18a1.56,1.56,0,0,0,2.3,0l1.71-1.66,11-10.62L77,87.37a1.38,1.38,0,0,0,.46-1.14,1.49,1.49,0,0,0-1.58-1.36H70.81c-.44,0-.44,0-.44-.43V69.69c0-.81-.42-1.21-1.26-1.21Zm0-1.81h9a2.92,2.92,0,0,1,3,3V82.54c0,.1,0,.2,0,.31s0,.21.22.21H75.9a3.32,3.32,0,0,1,3.43,2.78,3,3,0,0,1-.89,2.76q-6.09,5.91-12.21,11.8l-3.52,3.4a3.46,3.46,0,0,1-4.88,0L43.09,89.54l-1-1A3.17,3.17,0,0,1,42.15,84a3.5,3.5,0,0,1,2.42-1H48c.21,0,.28,0,.28-.26q0-6.61,0-13.23a2.83,2.83,0,0,1,2-2.75,3.64,3.64,0,0,1,1-.14c3,0,6,0,9,0"/>
				<path class="cls-5"
					  d="M60.27,68.48H51.4a1.94,1.94,0,0,0-.34,0,1.06,1.06,0,0,0-.9,1.12q0,7.5,0,15c0,.21-.06.26-.28.26-1.73,0-3.46,0-5.19,0a2.08,2.08,0,0,0-.43,0,1.43,1.43,0,0,0-1.17,1,1.31,1.31,0,0,0,.36,1.43l5.14,5,10.52,10.18a1.56,1.56,0,0,0,2.3,0l1.71-1.66,11-10.62L77,87.37a1.38,1.38,0,0,0,.46-1.14,1.49,1.49,0,0,0-1.58-1.36H70.81c-.44,0-.44,0-.44-.43V69.69c0-.81-.42-1.21-1.26-1.21Zm0-1.81h9a2.92,2.92,0,0,1,3,3V82.54c0,.1,0,.2,0,.31s0,.21.22.21H75.9a3.32,3.32,0,0,1,3.43,2.78,3,3,0,0,1-.89,2.76q-6.09,5.91-12.21,11.8l-3.52,3.4a3.46,3.46,0,0,1-4.88,0L43.09,89.54l-1-1A3.17,3.17,0,0,1,42.15,84a3.5,3.5,0,0,1,2.42-1H48c.21,0,.28,0,.28-.26q0-6.61,0-13.23a2.83,2.83,0,0,1,2-2.75,3.64,3.64,0,0,1,1-.14C54.28,66.66,57.27,66.67,60.26,66.67Z"/>
				<path class="cls-4"
					  d="M98.93,118.73h5.62a1.41,1.41,0,0,0,0-2.81h-2.81v-2.81a1.41,1.41,0,0,0-2.81,0v2.81a4.21,4.21,0,1,0,0,8.42h2.81a1.41,1.41,0,1,1,0,2.81H96.12a1.41,1.41,0,0,0,0,2.81h2.81v2.81a1.41,1.41,0,0,0,2.81,0V130a4.21,4.21,0,1,0,0-8.42H98.93a1.41,1.41,0,0,1,0-2.81m1.41,22.46a18.25,18.25,0,1,1,18.25-18.25,18.28,18.28,0,0,1-18.25,18.25m0-39.31a21.06,21.06,0,1,0,21.06,21.06,21.08,21.08,0,0,0-21.06-21.06m32.29,2.81c-9.13,0-16.85-3.86-16.85-8.43a4.27,4.27,0,0,1,.32-1.56s0-.1.05-.15c1.64-3.78,8.52-6.71,16.48-6.71,9.13,0,16.85,3.86,16.85,8.42s-7.72,8.43-16.85,8.43m-18.7-12a30.13,30.13,0,0,1-6.57.71c-9.14,0-16.85-3.85-16.85-8.42V82.45c3.41,3.25,9.6,5.39,16.85,5.39s13.44-2.14,16.85-5.39v3.64c-4.88,1.29-8.61,3.68-10.28,6.65m-6.57-24.56c9.13,0,16.85,3.86,16.85,8.43S116.49,85,107.36,85s-16.85-3.86-16.85-8.42,7.71-8.43,16.85-8.43M132.63,85a35,35,0,0,0-5.62.45V76.61c0-6.3-8.63-11.24-19.65-11.24S87.7,70.31,87.7,76.61v23.87a1.41,1.41,0,0,0,2.81,0V90.87c3.41,3.25,9.6,5.39,16.85,5.39a33.83,33.83,0,0,0,5.65-.47c0,.16,0,.31,0,.47v5.67a1.41,1.41,0,0,0,1.41,1.4,1.38,1.38,0,0,0,1.37-1.25c3.4,3.26,9.61,5.41,16.88,5.41s13.44-2.13,16.85-5.38v2.58c0,4.56-7.72,8.42-16.85,8.42a29.77,29.77,0,0,1-8.54-1.21,1.41,1.41,0,1,0-.82,2.69,32.62,32.62,0,0,0,9.36,1.33c7.25,0,13.44-2.14,16.85-5.39v2.58c0,4.57-7.72,8.43-16.85,8.43a30.89,30.89,0,0,1-6.75-.73,1.4,1.4,0,0,0-.62,2.74,33.5,33.5,0,0,0,7.37.79c7.25,0,13.44-2.14,16.85-5.39v2.59c0,4.56-7.72,8.42-16.85,8.42a29.84,29.84,0,0,1-7.76-1,1.4,1.4,0,1,0-.73,2.71,32.82,32.82,0,0,0,8.49,1.09c7.25,0,13.44-2.14,16.85-5.39V130c0,4.56-7.72,8.42-16.85,8.42a27.69,27.69,0,0,1-11.09-2.15,1.41,1.41,0,1,0-1.15,2.57,30.67,30.67,0,0,0,12.24,2.39c11,0,19.66-4.93,19.66-11.23V96.26c0-6.3-8.64-11.23-19.66-11.23"/>
			</g>
		</g>
	</g>
</svg>
