<svg xmlns="http://www.w3.org/2000/svg" xmlns:xlink="http://www.w3.org/1999/xlink" viewBox="0 0 200 200">
	<defs>
		<style>
			.cls-1 { fill: none; }
			.cls-2 { clip-path: url(#clip-path); }
			.cls-3 { fill: #00779f; }
			.cls-4 { fill: #fff; }
		</style>
		<clipPath id="clip-path">
			<rect class="cls-1" width="200" height="200"/>
		</clipPath>
	</defs>
	<title>hpce21-icon-pref-Asset 30icon</title>
	<g id="Layer_2" data-name="Layer 2">
		<g id="Layer_24" data-name="Layer 24">
			<g class="cls-2">
				<path class="cls-3" d="M100,200A100,100,0,1,0,0,100,100,100,0,0,0,100,200"/>
				<path class="cls-4"
					  d="M102.73,125.91h0a1.59,1.59,0,0,1,0,2.26l-3.39,3.39a1.6,1.6,0,0,1-2.26-2.26l3.39-3.39a1.61,1.61,0,0,1,2.26,0m-3.2,5.65h0a1.59,1.59,0,0,1-2.26,0l-3.39-3.39a1.59,1.59,0,0,1,0-2.26,1.61,1.61,0,0,1,2.26,0l3.39,3.39a1.59,1.59,0,0,1,0,2.26M98.4,132h0a1.6,1.6,0,0,1-1.6-1.6V116a1.6,1.6,0,1,1,3.2,0v14.4a1.6,1.6,0,0,1-1.6,1.6m35.2-54.4H64.8a3.19,3.19,0,0,1-.6-6.33l55.74-9.58a4.74,4.74,0,0,1,5.66,4.71v6.4a1.6,1.6,0,0,0,3.2,0v-6.4a8,8,0,0,0-8-8,8.12,8.12,0,0,0-1.42.14L63.65,68.14a6.4,6.4,0,0,0-5.25,6.29v52.8a8,8,0,0,0,8,8H77.6a1.6,1.6,0,1,0,0-3.2H66.4a4.8,4.8,0,0,1-4.8-4.8V79.94a6.35,6.35,0,0,0,3.2.89h68.8a4.8,4.8,0,0,1,4.8,4.8v41.6a4.8,4.8,0,0,1-4.8,4.8H119.2a1.6,1.6,0,0,0,0,3.2h14.4a8,8,0,0,0,8-8V85.63a8,8,0,0,0-8-8m-11.2,28.8a3.2,3.2,0,1,1,3.2,3.2,3.21,3.21,0,0,1-3.2-3.2m9.6,0a6.4,6.4,0,1,0-6.4,6.4,6.41,6.41,0,0,0,6.4-6.4m-33.6,32A14.4,14.4,0,1,1,112.8,124a14.42,14.42,0,0,1-14.4,14.4m0-32A17.6,17.6,0,1,0,116,124a17.63,17.63,0,0,0-17.6-17.6"/>
			</g>
		</g>
	</g>
</svg>
