<svg xmlns="http://www.w3.org/2000/svg" xmlns:xlink="http://www.w3.org/1999/xlink" viewBox="0 0 200 200">
	<defs>
		<style>
			.cls-1, .cls-8 { fill: none; }
			.cls-2 { clip-path: url(#clip-path); }
			.cls-3 { fill: #00ab41; }
			.cls-4 { fill: #fff; }
			.cls-5 { fill: #00958e; }
			.cls-6 { fill: #00779f; }
			.cls-7 { fill: #8146ae; }
			.cls-8 { stroke: #8146ae; stroke-miterlimit: 10; stroke-width: 1.6px; }
		</style>
		<clipPath id="clip-path">
			<rect class="cls-1" width="200" height="200"/>
		</clipPath>
	</defs>
	<title>hpce21-icon-coverage-Asset 23icon</title>
	<g id="Layer_2" data-name="Layer 2">
		<g id="Layer_16" data-name="Layer 16">
			<g class="cls-2">
				<path class="cls-3" d="M100,200A100,100,0,1,0,0,100,100,100,0,0,0,100,200"/>
				<path class="cls-4"
					  d="M115.39,125.41a4,4,0,0,1-3.27,4.1V108a2.29,2.29,0,0,0-4.57,0v43a3,3,0,0,1-3,3,3,3,0,0,1-2.5-1.39V134.47a2.29,2.29,0,0,0-4.57,0v18.11a3,3,0,0,1-2.5,1.39,3,3,0,0,1-3-3V108a2.29,2.29,0,0,0-4.57,0v21.54a3.94,3.94,0,0,1-3.27-4.1V102.65a3,3,0,0,1,3-3h25.25a3,3,0,0,1,3,3Zm-3-30.37H87.1a7.62,7.62,0,0,0-7.6,7.61v22.76c0,3.67,2.11,7.89,7.84,8.77v16.76a7.61,7.61,0,0,0,12.39,5.91,7.51,7.51,0,0,0,4.78,1.69,7.62,7.62,0,0,0,7.61-7.6V134.18c5.73-.88,7.84-5.1,7.84-8.77V102.65A7.63,7.63,0,0,0,112.35,95"/>
				<path class="cls-4" d="M99.73,75a6.45,6.45,0,1,1-6.45,6.45A6.46,6.46,0,0,1,99.73,75m0,17.47a11,11,0,1,0-11-11,11,11,0,0,0,11,11"/>
				<path class="cls-4"
					  d="M79.89,154A4.53,4.53,0,0,1,76,151.69V112.82a2.29,2.29,0,0,0-4.57,0v38.87A4.54,4.54,0,0,1,67.5,154a4.62,4.62,0,0,1-4.61-4.61V84.72a2.29,2.29,0,0,0-4.57,0V113.5c-4.81-.79-5.59-4.1-5.59-6.18V77.83a4.62,4.62,0,0,1,4.61-4.61H84.82A2.29,2.29,0,1,0,85,68.64H57.34a9.19,9.19,0,0,0-9.18,9.18v29.49c0,4.59,2.72,9.87,10.16,10.77v31.27a9.19,9.19,0,0,0,9.18,9.18,9.07,9.07,0,0,0,6.19-2.41,9.1,9.1,0,0,0,6.2,2.41,2.29,2.29,0,0,0,0-4.57"/>
				<path class="cls-4"
					  d="M73.69,46A6.69,6.69,0,1,1,67,52.71,6.69,6.69,0,0,1,73.69,46m0,17.94A11.26,11.26,0,1,0,62.44,52.71,11.27,11.27,0,0,0,73.69,64"/>
				<path class="cls-4"
					  d="M120.11,154a4.53,4.53,0,0,0,3.91-2.28V112.82a2.29,2.29,0,0,1,4.57,0v38.87A4.54,4.54,0,0,0,132.5,154a4.62,4.62,0,0,0,4.61-4.61V84.72a2.29,2.29,0,0,1,4.57,0V113.5c4.81-.79,5.59-4.1,5.59-6.18V77.83a4.62,4.62,0,0,0-4.61-4.61H115.18a2.29,2.29,0,1,1-.14-4.57h27.62a9.19,9.19,0,0,1,9.18,9.18v29.49c0,4.59-2.72,9.87-10.16,10.77v31.27a9.19,9.19,0,0,1-9.18,9.18,9.07,9.07,0,0,1-6.19-2.41,9.1,9.1,0,0,1-6.2,2.41,2.29,2.29,0,0,1,0-4.57"/>
				<path class="cls-4"
					  d="M126.31,46A6.69,6.69,0,1,0,133,52.71,6.69,6.69,0,0,0,126.31,46m0,17.94a11.26,11.26,0,1,1,11.25-11.26A11.27,11.27,0,0,1,126.31,64"/>
			</g>
		</g>
		<g id="Layer_19" data-name="Layer 19">
			<g class="cls-2">
				<path class="cls-5" d="M100,200A100,100,0,1,0,0,100,100,100,0,0,0,100,200"/>
				<path class="cls-4"
					  d="M131.33,125.57a4,4,0,0,1-3.27,4.1V108.13a2.29,2.29,0,0,0-4.57,0v43a3,3,0,0,1-3,3,3,3,0,0,1-2.5-1.39V134.63a2.29,2.29,0,0,0-4.57,0v18.11a3,3,0,0,1-2.49,1.39,3,3,0,0,1-3-3v-43a2.29,2.29,0,0,0-4.57,0v21.54a3.94,3.94,0,0,1-3.27-4.1V102.81a3,3,0,0,1,3-3h25.24a3,3,0,0,1,3,3Zm-3-30.37H103.05a7.62,7.62,0,0,0-7.61,7.61v22.76c0,3.67,2.11,7.89,7.84,8.77V151.1a7.61,7.61,0,0,0,7.61,7.6,7.53,7.53,0,0,0,4.78-1.69,7.51,7.51,0,0,0,4.78,1.69,7.61,7.61,0,0,0,7.61-7.6V134.34c5.73-.88,7.84-5.1,7.84-8.77V102.81a7.62,7.62,0,0,0-7.61-7.61"/>
				<path class="cls-4"
					  d="M115.67,75.17a6.45,6.45,0,1,1-6.45,6.45,6.45,6.45,0,0,1,6.45-6.45m0,17.47a11,11,0,1,0-11-11,11,11,0,0,0,11,11"/>
				<path class="cls-4"
					  d="M95.83,154.13a4.54,4.54,0,0,1-3.91-2.28V113a2.29,2.29,0,0,0-4.57,0v38.87a4.54,4.54,0,0,1-3.91,2.28,4.62,4.62,0,0,1-4.61-4.61V84.88a2.29,2.29,0,0,0-4.57,0v28.78c-4.8-.79-5.59-4.1-5.59-6.18V78a4.62,4.62,0,0,1,4.61-4.61h27.48a2.29,2.29,0,1,0,.14-4.57H73.28A9.19,9.19,0,0,0,64.1,78v29.49c0,4.59,2.72,9.87,10.16,10.77v31.27a9.18,9.18,0,0,0,15.38,6.77,9.07,9.07,0,0,0,6.19,2.41,2.29,2.29,0,1,0,0-4.57"/>
				<path class="cls-4"
					  d="M89.64,46.19A6.69,6.69,0,1,1,83,52.87a6.69,6.69,0,0,1,6.69-6.68m0,17.94A11.26,11.26,0,1,0,78.38,52.87,11.27,11.27,0,0,0,89.64,64.13"/>
			</g>
		</g>
		<g id="Layer_18" data-name="Layer 18">
			<g class="cls-2">
				<path class="cls-6" d="M100,200A100,100,0,1,0,0,100,100,100,0,0,0,100,200"/>
				<path class="cls-4"
					  d="M86.49,46.17a6.68,6.68,0,1,1-6.4,6.67,6.55,6.55,0,0,1,6.4-6.67m0,17.9A11.23,11.23,0,1,0,75.72,52.84,11,11,0,0,0,86.49,64.07"/>
				<path class="cls-4"
					  d="M114.43,46.17a6.68,6.68,0,1,1-6.4,6.67,6.55,6.55,0,0,1,6.4-6.67m0,17.9a11.23,11.23,0,1,0-10.77-11.23,11,11,0,0,0,10.77,11.23"/>
				<path class="cls-4"
					  d="M137.47,107.3c0,2.07-.75,5.38-5.35,6.16V84.77a2.19,2.19,0,1,0-4.37,0v64.46a4.52,4.52,0,0,1-4.41,4.6,4.3,4.3,0,0,1-3.74-2.29V112.79a2.19,2.19,0,1,0-4.37,0v38.75a4.31,4.31,0,0,1-3.75,2.29,4.52,4.52,0,0,1-4.41-4.6V84.77a2.23,2.23,0,0,0-2.18-2.28H91.48L70.84,75.17a4.15,4.15,0,0,1-2.28-5.41,3.59,3.59,0,0,1,2.06-2.09,4.35,4.35,0,0,1,3.25,0l17,5.56a2.11,2.11,0,0,0,.66.1h13.24a1,1,0,0,0,.25,0h28.05a4.51,4.51,0,0,1,4.41,4.6ZM92.93,149.23a4.52,4.52,0,0,1-4.41,4.6,4.28,4.28,0,0,1-3.74-2.29V112.79a2.19,2.19,0,1,0-4.38,0v38.75a4.3,4.3,0,0,1-3.74,2.29,4.52,4.52,0,0,1-4.41-4.6V84.77a2.19,2.19,0,1,0-4.37,0v28.69c-4.6-.79-5.35-4.09-5.35-6.16V77.89a4.62,4.62,0,0,1,1.88-3.75,8.53,8.53,0,0,0,5,5.31l21,7.47a2.11,2.11,0,0,0,.7.13h1.82Zm40.13-80.5H91.85L75.28,63.3a8.53,8.53,0,0,0-6.32.15,8,8,0,0,0-4.5,4.74,9.37,9.37,0,0,0-.26,1,9.07,9.07,0,0,0-6,8.69V107.3c0,4.58,2.61,9.84,9.72,10.74v31.19a9,9,0,0,0,8.78,9.15A8.51,8.51,0,0,0,82.59,156a8.47,8.47,0,0,0,5.93,2.41,9,9,0,0,0,8.78-9.15V87.05h5.4v62.18a9,9,0,0,0,8.78,9.15,8.47,8.47,0,0,0,5.93-2.41,8.51,8.51,0,0,0,5.93,2.41,9,9,0,0,0,8.78-9.15V118.06c7.12-.89,9.72-6.18,9.72-10.76V77.89a9,9,0,0,0-8.78-9.16"/>
			</g>
		</g>
		<g id="Layer_15" data-name="Layer 15">
			<g class="cls-2">
				<path class="cls-7" d="M100,200A100,100,0,1,0,0,100,100,100,0,0,0,100,200"/>
				<path class="cls-4"
					  d="M120.84,114.78a5.25,5.25,0,0,1-4.35,5.47V91.57a3,3,0,1,0-6.08,0v57.19a4.05,4.05,0,0,1-4,4.05A4,4,0,0,1,103,151v-24.1a3,3,0,0,0-6.08,0V151a4,4,0,0,1-3.33,1.86,4.05,4.05,0,0,1-4-4.05V91.57a3,3,0,0,0-6.08,0v28.68a5.25,5.25,0,0,1-4.35-5.47V84.49a4,4,0,0,1,4-4h33.6a4,4,0,0,1,4,4Zm-4-40.41H83.2A10.13,10.13,0,0,0,73.07,84.49v30.29c0,4.9,2.81,10.51,10.44,11.69v22.29a10.13,10.13,0,0,0,10.12,10.13,10,10,0,0,0,6.37-2.26,10,10,0,0,0,6.37,2.26,10.13,10.13,0,0,0,10.12-10.13V126.47c7.63-1.18,10.44-6.79,10.44-11.69V84.49A10.13,10.13,0,0,0,116.8,74.37"/>
				<path class="cls-8"
					  d="M120.84,114.78a5.25,5.25,0,0,1-4.35,5.47V91.57a3,3,0,1,0-6.08,0v57.19a4.05,4.05,0,0,1-4,4.05A4,4,0,0,1,103,151v-24.1a3,3,0,0,0-6.08,0V151a4,4,0,0,1-3.33,1.86,4.05,4.05,0,0,1-4-4.05V91.57a3,3,0,0,0-6.08,0v28.68a5.25,5.25,0,0,1-4.35-5.47V84.49a4,4,0,0,1,4-4h33.6a4,4,0,0,1,4,4Zm-4-40.41H83.2A10.13,10.13,0,0,0,73.07,84.49v30.29c0,4.9,2.81,10.51,10.44,11.69v22.29a10.13,10.13,0,0,0,10.12,10.13,10,10,0,0,0,6.37-2.26,10,10,0,0,0,6.37,2.26,10.13,10.13,0,0,0,10.12-10.13V126.47c7.63-1.18,10.44-6.79,10.44-11.69V84.49A10.13,10.13,0,0,0,116.8,74.37Z"/>
				<path class="cls-4"
					  d="M100,47.7a8.59,8.59,0,1,1-8.58,8.58A8.59,8.59,0,0,1,100,47.7M100,71A14.67,14.67,0,1,0,85.34,56.28,14.69,14.69,0,0,0,100,71"/>
				<path class="cls-8"
					  d="M100,47.7a8.59,8.59,0,1,1-8.58,8.58A8.59,8.59,0,0,1,100,47.7ZM100,71A14.67,14.67,0,1,0,85.34,56.28,14.69,14.69,0,0,0,100,71Z"/>
			</g>
		</g>
	</g>
</svg>
