<svg xmlns="http://www.w3.org/2000/svg" xmlns:xlink="http://www.w3.org/1999/xlink" viewBox="0 0 200 200">
	<defs>
		<style>
			.cls-1, .cls-5 { fill: none; }
			.cls-2 { clip-path: url(#clip-path); }
			.cls-3 { fill: #8146ae; }
			.cls-4 { fill: #fff; }
			.cls-5 { stroke: #fff; stroke-miterlimit: 10; stroke-width: 1.6px; }
		</style>
		<clipPath id="clip-path">
			<rect class="cls-1" width="200" height="200"/>
		</clipPath>
	</defs>
	<title>hpce21-icon-pref-Asset 29icon</title>
	<g id="Layer_2" data-name="Layer 2">
		<g id="Layer_25" data-name="Layer 25">
			<g class="cls-2">
				<path class="cls-3" d="M100,200A100,100,0,1,0,0,100,100,100,0,0,0,100,200"/>
				<path class="cls-4"
					  d="M98.41,123.14h6.37a1.6,1.6,0,1,0,0-3.19h-3.19v-1.59a1.59,1.59,0,0,0-3.18,0V120a4.79,4.79,0,1,0,0,9.57h3.18a1.6,1.6,0,1,1,0,3.19H95.22a1.6,1.6,0,1,0,0,3.19h3.19v1.6a1.59,1.59,0,0,0,3.18,0v-1.6a4.79,4.79,0,1,0,0-9.57H98.41a1.6,1.6,0,1,1,0-3.19M100,143.88a15.95,15.95,0,1,1,16-15.95,16,16,0,0,1-16,15.95m0-35.09a19.14,19.14,0,1,0,19.14,19.14A19.17,19.17,0,0,0,100,108.79M72.89,86.46h54.22a1.6,1.6,0,1,0,0-3.19H72.89a1.6,1.6,0,1,0,0,3.19M66.51,96h67a1.6,1.6,0,1,0,0-3.19h-67a1.6,1.6,0,1,0,0,3.19m71.77,19a11.18,11.18,0,0,1-9.45-9.44h7.85a1.6,1.6,0,0,1,1.6,1.6Zm0,22.55a14.38,14.38,0,0,0-12.67,12.67H74.39a14.38,14.38,0,0,0-12.67-12.67V118.27A14.38,14.38,0,0,0,74.39,105.6h51.22a14.38,14.38,0,0,0,12.67,12.67Zm0,11.07a1.6,1.6,0,0,1-1.6,1.6h-7.85a11.18,11.18,0,0,1,9.45-9.44Zm-75,1.6a1.6,1.6,0,0,1-1.6-1.6v-7.84a11.18,11.18,0,0,1,9.45,9.44Zm-1.6-43.06a1.6,1.6,0,0,1,1.6-1.6h7.85A11.18,11.18,0,0,1,61.72,115Zm75-4.79H63.32a4.79,4.79,0,0,0-4.78,4.79v41.46a4.79,4.79,0,0,0,4.78,4.79h73.36a4.79,4.79,0,0,0,4.78-4.79V107.2a4.79,4.79,0,0,0-4.78-4.79"/>
				<path class="cls-4"
					  d="M101.42,40.81H93.27a.94.94,0,0,0-.79,1V55.08c0,.19,0,.24-.24.23h-4.6a1.67,1.67,0,0,0-.38,0,1.24,1.24,0,0,0-1,.88,1.15,1.15,0,0,0,.32,1.27c1.52,1.46,3,2.94,4.54,4.4l9.32,9a1.37,1.37,0,0,0,2,0L104,69.43,113.69,60l2.58-2.49a1.2,1.2,0,0,0,.4-1,1.31,1.31,0,0,0-1.39-1.21h-4.52c-.4,0-.4,0-.4-.37V41.87c0-.71-.37-1.06-1.11-1.06Zm0-1.61h7.94A2.58,2.58,0,0,1,112,41.36a3.44,3.44,0,0,1,0,.46V53.25a2.43,2.43,0,0,1,0,.27c0,.15,0,.19.19.19h3a2.94,2.94,0,0,1,3,2.46,2.63,2.63,0,0,1-.79,2.44L106.7,69.05l-3.11,3a3.08,3.08,0,0,1-4.33,0l-13-12.62-.9-.88a2.8,2.8,0,0,1,.07-4,3.07,3.07,0,0,1,2.14-.84h3c.19,0,.25-.05.25-.24q0-5.85,0-11.7a2.51,2.51,0,0,1,1.79-2.43,2.87,2.87,0,0,1,.87-.13h8"/>
				<path class="cls-5"
					  d="M101.42,40.81H93.27a.94.94,0,0,0-.79,1V55.08c0,.19,0,.24-.24.23h-4.6a1.67,1.67,0,0,0-.38,0,1.24,1.24,0,0,0-1,.88,1.15,1.15,0,0,0,.32,1.27c1.52,1.46,3,2.94,4.54,4.4l9.32,9a1.37,1.37,0,0,0,2,0L104,69.43,113.69,60l2.58-2.49a1.2,1.2,0,0,0,.4-1,1.31,1.31,0,0,0-1.39-1.21h-4.52c-.4,0-.4,0-.4-.37V41.87c0-.71-.37-1.06-1.11-1.06Zm0-1.61h7.94A2.58,2.58,0,0,1,112,41.36a3.44,3.44,0,0,1,0,.46V53.25a2.43,2.43,0,0,1,0,.27c0,.15,0,.19.19.19h3a2.94,2.94,0,0,1,3,2.46,2.63,2.63,0,0,1-.79,2.44L106.7,69.05l-3.11,3a3.08,3.08,0,0,1-4.33,0l-13-12.62-.9-.88a2.8,2.8,0,0,1,.07-4,3.07,3.07,0,0,1,2.14-.84h3c.19,0,.25-.05.25-.24q0-5.85,0-11.7a2.51,2.51,0,0,1,1.79-2.43,2.87,2.87,0,0,1,.87-.13Z"/>
			</g>
		</g>
	</g>
</svg>
