<svg xmlns="http://www.w3.org/2000/svg" xmlns:xlink="http://www.w3.org/1999/xlink" viewBox="0 0 143.27 200">
	<defs>
		<style>
			.cls-1 { fill: none; }
			.cls-2 { fill: #002c77; }
			.cls-3 { clip-path: url(#clip-path); }
			.cls-4 { fill: #f0c000; }
			.cls-5 { fill: #f6d966; }
			.cls-6 { fill: #231f20; }
		</style>
		<clipPath id="clip-path" transform="translate(0 0)">
			<rect class="cls-1" width="143.27" height="200"/>
		</clipPath>
	</defs>
	<title>hpce21-icon-Asset 16icon</title>
	<g id="Layer_2" data-name="Layer 2">
		<g id="Layer_1-2" data-name="Layer 1">
			<polygon class="cls-2" points="57.62 99.83 105.54 198.49 116.2 172.44 143.27 180.16 95.35 81.5 57.62 99.83"/>
			<polygon class="cls-2" points="0.81 181.67 27.88 173.95 38.54 200 86.46 101.34 48.73 83.01 0.81 181.67"/>
			<g class="cls-3">
				<path class="cls-4"
					  d="M131.74,69.11l5.83-8c1.52-2.09.16-4.74-1.62-6l-7.26-5.28q1.5-4.59,3-9.19a4.46,4.46,0,0,0-3.1-5.43l-8.78-2.86V22.88a4.46,4.46,0,0,0-4.39-4.45h-9.48q-1.41-4.38-2.84-8.76c-.71-2.2-3-3.9-5.41-3.13l-9.22,3-5.3-7.29c-1.3-1.79-4-3.09-6-1.58l-8,5.82-8-5.83C59-.86,56.35.49,55.05,2.28L49.77,9.54l-9.19-3a4.47,4.47,0,0,0-5.44,3.1l-2.85,8.78H22.88a4.45,4.45,0,0,0-4.45,4.38v9.48L9.67,35.14c-2.2.71-3.9,3-3.13,5.41l3,9.22-7.29,5.3c-1.8,1.3-3.09,4-1.58,6l5.82,8q-2.92,4-5.83,8c-1.52,2.09-.17,4.74,1.62,6l7.26,5.27q-1.5,4.6-3,9.2a4.46,4.46,0,0,0,3.1,5.43l8.78,2.86v9.41a4.45,4.45,0,0,0,4.38,4.45h9.48l2.85,8.76c.71,2.2,3,3.9,5.41,3.13l9.22-3L55.06,136c1.31,1.79,4,3.09,6.06,1.57l8-5.81,8,5.83c2.09,1.52,4.74.17,6-1.62l5.27-7.26,9.2,3a4.46,4.46,0,0,0,5.43-3.1c1-2.92,1.91-5.85,2.86-8.78h9.41a4.45,4.45,0,0,0,4.45-4.39v-9.47l8.76-2.85c2.2-.71,3.9-3,3.12-5.41q-1.49-4.62-3-9.22l7.29-5.3c1.79-1.3,3.09-4,1.57-6l-5.81-8"
					  transform="translate(0 0)"/>
				<path class="cls-5" d="M112.93,69.11A43.82,43.82,0,1,1,69.11,25.3a43.82,43.82,0,0,1,43.82,43.81" transform="translate(0 0)"/>
				<path class="cls-6"
					  d="M100.85,85.69h3V71.06h-3v5.75H94.21V71.06h-3V85.69h3V79.55h6.64ZM83.43,86a6.5,6.5,0,0,0,6-3.6l-2.57-1.29a3.8,3.8,0,0,1-3.42,2.13c-2.44,0-4.3-2-4.3-4.81s1.86-4.8,4.3-4.8a3.85,3.85,0,0,1,3.42,2.13l2.57-1.32a6.45,6.45,0,0,0-6-3.57,7.57,7.57,0,0,0,0,15.13m-15.22-.26h3V73.8h4.1V71.06H64.1V73.8h4.11ZM57.71,73.76,60,80.47H55.37Zm4,11.93H65L59.59,71.06H55.83L50.39,85.69h3.29l.89-2.52h6.28Zm-15.65,0h3V71.06H44.89l-3.41,9.12-3.42-9.12h-4.2V85.69h3V75.16l4,10.53h1.31l4-10.53Z"
					  transform="translate(0 0)"/>
				<path class="cls-6"
					  d="M86.74,63.76h3V51.87h4.09V49.13H82.63v2.74h4.11ZM70,61.7A8,8,0,0,0,76,64c3.8,0,5.63-2,5.63-4.69,0-3.25-3-4-5.27-4.52-1.63-.39-2.81-.7-2.81-1.69s.72-1.49,2.07-1.49a5.91,5.91,0,0,1,4,1.6L81.3,51a7.62,7.62,0,0,0-5.48-2c-3.31,0-5.33,2-5.33,4.41,0,3.27,3,3.92,5.25,4.47,1.62.4,2.84.77,2.84,1.87,0,.83-.8,1.64-2.44,1.64a6.07,6.07,0,0,1-4.47-2ZM58.7,63.76h10v-2.7h-7v-3.4h6.8V55H61.7V51.81h7V49.13h-10Zm-11-2.66V57.66h3.85a1.67,1.67,0,0,1,1.82,1.71,1.64,1.64,0,0,1-1.82,1.73Zm0-6.09V51.78h3.75a1.62,1.62,0,1,1,0,3.23Zm-3,8.75h7.64a3.78,3.78,0,0,0,4.09-3.95,3.53,3.53,0,0,0-2.7-3.6,3.21,3.21,0,0,0,2.42-3.35,3.7,3.7,0,0,0-4.05-3.73h-7.4Z"
					  transform="translate(0 0)"/>
			</g>
		</g>
	</g>
</svg>
