<svg id="Layer_1" data-name="Layer 1" xmlns="http://www.w3.org/2000/svg" xmlns:xlink="http://www.w3.org/1999/xlink" viewBox="0 0 600 128.65">
	<defs>
		<style>
			.cls-1 { fill: none; }
			.cls-2 { clip-path: url(#clip-path); }
			.cls-3 { fill: #929497; }
			.cls-4 { fill: #ed3d8a; }
			.cls-5 { fill: #009cdf; }
			.cls-6 { fill: #00779f; }
			.cls-7 { fill: #fff; }
		</style>
		<clipPath id="clip-path" transform="translate(-50 -160.14)">
			<rect class="cls-1" x="50" y="160.14" width="600" height="128.64"/>
		</clipPath>
	</defs>
	<title>HPCE21_logo</title>
	<g class="cls-2">
		<path class="cls-3"
			  d="M474.14,264.54c0,2.92-2.24,4.8-5.21,4.8h-7.77v-9.6h7.77c3,0,5.21,1.88,5.21,4.8m-.73,23.61h8.5l-7.82-13.24c3.75-.88,7.61-4.17,7.61-10.32,0-6.46-4.43-11.21-11.68-11.21H453.76v34.77h7.4V275.7h5.42Zm-32.48-17.36c0,6.47-4.17,11.42-10.58,11.42s-10.53-4.95-10.53-11.42,4.12-11.41,10.53-11.41,10.58,4.9,10.58,11.41m-28.72,0c0,10.48,7.66,18,18.14,18s18.19-7.51,18.19-18-7.66-18-18.19-18-18.14,7.51-18.14,18m-19.4,17.36h7.46V259.9h10.11v-6.52H382.65v6.52h10.16Zm-26-28.35,5.74,15.95H361.07Zm10,28.35h8.08l-13.4-34.77h-9.28l-13.45,34.77h8.14l2.18-6h15.54Zm-38.68,0h7.45V253.38H335.16l-8.45,21.69-8.44-21.69H307.89v34.77h7.41v-25l9.8,25h3.23l9.8-25Zm-44.52,0H301V253.38h-7.4Zm-22.31,0h7.45V259.9h10.12v-6.52H261.13v6.52H271.3ZM230,283.26c3.28,3.28,8.08,5.52,14.75,5.52,9.38,0,13.92-4.79,13.92-11.16,0-7.71-7.3-9.43-13-10.73-4-.94-6.94-1.67-6.94-4,0-2.08,1.78-3.54,5.11-3.54a14.87,14.87,0,0,1,10,3.8l4.12-5.42c-3.44-3.18-8-4.85-13.56-4.85-8.18,0-13.19,4.69-13.19,10.48,0,7.77,7.3,9.33,13,10.64,4,.93,7,1.82,7,4.43,0,2-2,3.91-6,3.91a15.24,15.24,0,0,1-11.06-4.7Zm-28,4.89h24.61v-6.41h-17.2v-8.08H226.2V267.3H209.37v-7.56h17.2v-6.36H202Zm-35.65,0h7.45V259.9h10.11v-6.52H156.14v6.52h10.17ZM125,283.26c3.28,3.28,8.08,5.52,14.75,5.52,9.38,0,13.92-4.79,13.92-11.16,0-7.71-7.3-9.43-13-10.73-4-.94-6.93-1.67-6.93-4,0-2.08,1.77-3.54,5.11-3.54a14.87,14.87,0,0,1,10,3.8l4.12-5.42c-3.45-3.18-8-4.85-13.56-4.85-8.18,0-13.19,4.69-13.19,10.48,0,7.77,7.3,9.33,13,10.64,4,.93,7,1.82,7,4.43,0,2-2,3.91-6,3.91a15.23,15.23,0,0,1-11.05-4.7Zm-10.43-12.47c0,6.47-4.17,11.42-10.58,11.42s-10.54-4.95-10.54-11.42,4.12-11.41,10.54-11.41,10.58,4.9,10.58,11.41m-28.73,0c0,10.48,7.67,18,18.15,18s18.19-7.51,18.19-18-7.66-18-18.19-18-18.15,7.51-18.15,18m-17.56,18a16.13,16.13,0,0,0,14.8-8.55l-6.36-3.07a9.43,9.43,0,0,1-8.44,5c-6,0-10.64-4.85-10.64-11.42s4.59-11.41,10.64-11.41a9.52,9.52,0,0,1,8.44,5.06l6.36-3.13a16,16,0,0,0-14.8-8.5c-10.17,0-18.25,7.3-18.25,18s8.08,18,18.25,18"
			  transform="translate(-50 -160.14)"/>
		<path class="cls-4"
			  d="M440.64,197c1.1-3.62,1.2-7-.3-9.54-.6-1-1.41-1.11-2.11,0-6.33,9.34-14.06,23.3-16.07,29.63-1.61,5-1,8.33,1,10.34.91.91,1.51.5,1.91-.4,4.32-9.44,8.74-19.08,14.67-25.51,6.42-7,12.25-9.84,13.25-9.44,1.81.8-7,11.45-10.34,21.29-2.91,8.74-.91,15,7.63,15,5.83,0,12.16-5.13,14.87-10.75,1.4-2.91,1.6-5.22.9-6.33-.5-.8-1.2-.8-1.71.1-3.81,7-8.73,13.66-12.85,13.86-3.62.2-4.22-4.52-1.61-10.34,2.31-5.23,7.23-12.66,9.34-17.08,2.51-5.22-.6-10.14-3.92-10.65s-10.14,5-14.66,9.85M402.47,209.4c-5.12,8.84-10.34,15.27-14.46,15.17-3.92-.1-2.61-8.94,2.71-17.58,5.53-8.94,12.86-15.46,16.07-15.16,2.91.3,2,6.52-4.32,17.57m8.74-15.56c.2-3.92-1.81-7.24-6.13-7.24-5,0-12.95,4.52-21.09,16.38-8.33,12.15-6.43,24.9,2.92,24.9,4.82,0,9.34-3.71,12.55-7.83,0,4.72,2.81,7.94,8.24,8.24s11.85-5.23,14.46-10.75c1.31-2.81,1.31-5.32.9-6.23s-1.1-.8-1.6.1c-3.52,6.93-9,13.76-13.16,14-3.42.2-3.32-4.12-.81-9.74,2.42-5.32,7.44-12.86,9.65-17.38,2.41-5,1.6-9.34.1-11.15-.71-.9-1.51-.7-2.41.61a70,70,0,0,0-3.62,6.13m-49,8.23a51.56,51.56,0,0,1,2.41-4.82c6.93-12.86,14.36-24,15.67-23.2s-4.32,16.87-18.08,28m-1.81,4.32c8.94-5.83,20.19-17.88,23.3-30.23,1.21-4.72.6-8.44-2.31-11-1.4-1.31-2.81-1.11-4.32.5-10.24,10.65-21.69,28.83-25.41,46.3-2.31,10.85,1.41,15.67,8.34,15.87,8,.21,15.37-8.13,16.77-11.14,1.11-2.42,1.51-4.63,1-6.23-.41-1.41-1.51-1.31-2.21,0-3.92,7.73-10.95,15-15.77,14.56-4.52-.4-3.42-8.74.6-18.58m-39.22-5.73c3-5.62,5.83-10.24,8.44-14.86,2.81-4.82,3.82-8.34,3.82-11.05,6.63-1.91,16.67-7.13,18.78-1.61,2.71,7-8.54,23.31-31,27.52m6-25.31C318.46,189.11,309,208,306.41,217.14c-1.51,5.42-.5,8.43.9,9.94.7.7,1.21.7,1.61-.3,3.51-8.34,6.53-15,9.34-20.49a9.19,9.19,0,0,0,6.23,1c13.15-2.51,24-10,29-17.87,3.42-5.33,5.13-11.15,3-17.18-2.41-6.93-6.83-8.54-12-8.34-6.82.3-14.36,4.52-22.7,5.43-1.3.1-1.5.7-1,1.81a7.44,7.44,0,0,0,6.33,4.21m-46.95,42c1.5-3,1.5-5.12,1-6.23a1,1,0,0,0-1.8.1c-3.12,6.43-8.64,13.66-12.76,13.86-3.72.2-4.22-4.52-1.71-10.34,2.31-5.23,7.13-12.56,9.34-17,2.61-5.12-.5-10.14-3.92-10.54-2.71-.31-7.93,3-12,7,4.32-6.73,9.65-14.87,12-18.89,3.82-6.32,4.12-11.35,2.82-14.26-.51-1.2-1.51-1.3-2.41-.1-8.14,10.15-29,45.5-32.55,55.55-2.11,6-1.2,8.83.41,10.64.6.7,1.3.5,1.7-.4a130.66,130.66,0,0,1,9.75-19.08c5.82-9.55,16.77-16.38,18.18-15.57,1.6.9-7.14,11.35-10.45,21.09-3,8.74-.9,14.87,7.53,14.87,5.93,0,12.06-5,14.87-10.75m-54-29.93c-4.32,7.93-8.53,16.37-10.64,21.39-4.83,11.55.5,19,7.13,19.19,8,.3,14.66-8.54,16-11.45,1-2.32,1.5-4.12,1-5.73-.4-1.41-1.51-1.21-2.11,0-3.71,7.53-9.44,14.66-14,14.46-4.22-.2-5.32-6.43-2-13.76,3.82-8.43,9.54-18.18,13.46-24.91a30.14,30.14,0,0,1,7.84-.4c1.5,0,1.9-.7,1.2-1.91s-2.31-3.11-6.23-3c2.41-5.22,2.41-8.54,1.31-11.35-.5-1.2-1.51-1.31-2.41,0a127.51,127.51,0,0,0-7.63,12.46,57.62,57.62,0,0,1-8.34.4c-1.51-.1-2.11.6-1.11,2,.81,1.1,3.12,2.61,6.53,2.61m-29,14.66a51.56,51.56,0,0,1,2.41-4.82c6.93-12.86,14.36-24,15.66-23.2s-4.31,16.87-18.07,28m-1.81,4.32c8.94-5.83,20.19-17.88,23.3-30.23,1.21-4.72.6-8.44-2.31-11-1.41-1.31-2.81-1.11-4.32.5-10.24,10.65-21.69,28.83-25.41,46.3-2.31,10.85,1.4,15.67,8.34,15.87,8,.21,15.36-8.13,16.77-11.14,1.1-2.42,1.51-4.63,1-6.23-.4-1.41-1.5-1.31-2.21,0-3.91,7.73-10.94,15-15.76,14.56-4.53-.4-3.42-8.74.6-18.58m-31.94,3c-5.12,8.84-10.35,15.27-14.46,15.17-3.92-.1-2.62-8.94,2.71-17.58,5.52-8.94,12.85-15.46,16.07-15.16,2.91.3,2,6.52-4.32,17.57m8.74-15.56c.2-3.92-1.81-7.24-6.13-7.24-5,0-13,4.52-21.09,16.38-8.34,12.15-6.43,24.9,2.91,24.9,4.82,0,9.34-3.71,12.56-7.83,0,4.72,2.81,7.94,8.23,8.24s11.85-5.23,14.46-10.75c1.31-2.81,1.31-5.32.91-6.23s-1.11-.8-1.61.1c-3.51,6.93-9,13.76-13.16,14-3.41.2-3.31-4.12-.8-9.74,2.41-5.32,7.43-12.86,9.64-17.38,2.41-5,1.61-9.34.1-11.15-.7-.9-1.5-.7-2.41.61a70.22,70.22,0,0,0-3.61,6.13m-59.56,13.25c.2-.5.5-1.1.8-1.7,4.72-9.55,13.06-15.57,15.17-13.86,1.4,1.1-.81,6.32-4,10.54-2.91,3.82-7,8.14-11.95,5m-.91,2.21c7,5.73,13.76,3.12,18.68-2.91,4.22-5.12,5-11.25,3.22-13.66a18.65,18.65,0,0,0-5.93-5.22c-5-2.92-15.26,2.31-21.79,15.26s-2.11,25.52,10.64,25.32c7.74-.1,15.47-4.73,19.69-10.85,1.81-2.61,2.11-5.43,1.71-6.23s-1.21-.9-1.71-.1c-4.32,6.63-11.65,14.66-20,14.26-5.32-.3-7.73-6.63-4.52-15.87m-3.56-29.53c4.22-7.53,4.52-12.25,3.11-15.16-.6-1.31-1.5-1.41-2.51-.1-4,5.32-12.85,21.29-19.38,34.25-6.63.4-12.86,2.11-19.79,3C74,193.43,78.12,186.3,81,180.68c3.72-7.13,4-12.06,2.51-14.87-.6-1.1-1.5-1.3-2.41-.1-4.12,5.83-13.46,23.2-19.88,36.56-1.31,0-2.72-.2-4.22-.3-1.71-.1-1.91.3-1.31,1.51a6.57,6.57,0,0,0,3.42,3.21,109.63,109.63,0,0,0-4.32,10.25c-1.71,6.12-1,8.94.5,11.05.6.9,1.4.6,1.81-.41,2.91-6.73,6-13.36,9.14-19.58,4.72,0,12.45-1.31,19.78-2.21a102,102,0,0,0-4.21,9.64c-2,6.13-1.11,9,.3,11,.6.9,1.3.8,1.7-.2,3.32-7.54,6.83-14.77,10.25-21.3a24.12,24.12,0,0,1,5.62.31c1,.2,1.31-.31,1.11-1.11a6.45,6.45,0,0,0-3.92-4.42c4.32-7.83,8.24-14.56,11.25-20"
			  transform="translate(-50 -160.14)"/>
		<path class="cls-4"
			  d="M571.75,240.62c0,14.15,0,28.31,0,42.46A3.32,3.32,0,0,1,570.2,286c-1.79,1.45-3.1,1.24-5,0-17.55-11.57-33.89-24.55-47.89-40.31-7.77-8.76-14.52-18.23-18.92-29.18-2.6-6.5-4.3-13.22-4-20.25.46-11.73,5.71-21.11,14.78-28.37a34,34,0,0,1,23.3-7.72c7.25.31,13.84,2.82,20,6.48a70.4,70.4,0,0,1,15.12,12.12c2-1.83,3.87-3.67,5.88-5.37,6.78-5.75,14.23-10.32,23-12.31,12.08-2.73,22.71.39,31.8,8.53,8.2,7.34,12.65,16.61,12.75,27.73,0,2.46-.62,4.93-.77,7.4-.1,1.72-.91,2-2.42,2-5.3-.08-10.61,0-15.91,0q-23.85,0-47.71,0c-2.7,0-2.5-.45-2.5,2.58,0,6.79,0,13.57,0,20.36"
			  transform="translate(-50 -160.14)"/>
	</g>
	<path class="cls-5" d="M628.79,252.79v0Zm-10.9,32.09H650v-69.6H617.89Z" transform="translate(-50 -160.14)"/>
	<path class="cls-5" d="M587.37,226.19v10.23m-6.94-21.17H612.5v32.12H580.43Z" transform="translate(-50 -160.14)"/>
	<g class="cls-2">
		<path class="cls-6" d="M604.79,280.91a3.38,3.38,0,0,0,.75-.17m6.94,4.13h-32V252.78h32Z" transform="translate(-50 -160.14)"/>
	</g>
	<rect class="cls-7" x="537.89" y="69.11" width="16.79" height="3.6"/>
	<rect class="cls-7" x="537.89" y="102.69" width="16.79" height="3.6"/>
	<rect class="cls-7" x="537.89" y="111.08" width="16.79" height="3.6"/>
	<rect class="cls-7" x="581.66" y="81.7" width="3.6" height="16.79"/>
	<rect class="cls-7" x="575.06" y="88.3" width="16.79" height="3.6"/>
</svg>
